<?xml version="1.0" encoding="utf-8"?>
<svg viewBox="-3840.019 -3197.375 4356.086 4023.444" xmlns="http://www.w3.org/2000/svg">
  <g id="g250" transform="matrix(39.631554, 0, 0, -39.631554, -2747.996826, -2577.937256)" style="">
    <path d="M 0,0 C -0.249,0.351 -0.498,0.703 -0.744,1.045 L -1.428,0.281 c 0.244,-0.341 0.494,-0.698 0.741,-1.047 z" style="fill:#ffffff;fill-opacity:1;fill-rule:nonzero;stroke:none" id="path252"/>
  </g>
  <g id="g254" transform="matrix(39.631554, 0, 0, -39.631554, -1997.454956, -2698.51123)" style="">
    <path d="M 0,0 -0.701,-0.755 C 0.052,-1.91 0.837,-3.119 1.648,-4.376 l 0.712,0.74 C 1.544,-2.372 0.756,-1.159 0,0" style="fill:#ffffff;fill-opacity:1;fill-rule:nonzero;stroke:none" id="path256"/>
  </g>
  <g id="g258" transform="matrix(39.631554, 0, 0, -39.631554, -2648.593262, -2434.897949)" style="">
    <path d="M 0,0 C -0.35,0.513 -0.697,1.019 -1.043,1.519 L -1.732,0.75 c 0.347,-0.503 0.693,-1.001 1.045,-1.517 z" style="fill:#ffffff;fill-opacity:1;fill-rule:nonzero;stroke:none" id="path260"/>
  </g>
  <g id="g262" transform="matrix(39.631554, 0, 0, -39.631554, -2591.539795, -2752.548828)" style="">
    <path d="M 0,0 C -0.454,0.651 -0.715,1.02 -0.729,1.041 L -0.779,1.005 -1.422,0.287 c 0.137,-0.195 0.388,-0.553 0.736,-1.052 z" style="fill:#ffffff;fill-opacity:1;fill-rule:nonzero;stroke:none" id="path264"/>
  </g>
  <g id="g266" transform="matrix(39.631554, 0, 0, -39.631554, -2479.120605, -2179.682617)" style="">
    <path d="M 0,0 -0.703,-0.757 C 0.02,-1.873 0.742,-2.997 1.46,-4.126 l 0.714,0.743 C 1.452,-2.249 0.727,-1.119 0,0" style="fill:#ffffff;fill-opacity:1;fill-rule:nonzero;stroke:none" id="path268"/>
  </g>
  <g id="g270" transform="matrix(39.631554, 0, 0, -39.631554, -2165.377686, -2517.633545)" style="">
    <path d="m 0,0 -0.7,-0.754 c 0.748,-1.128 1.521,-2.301 2.31,-3.507 l 0.711,0.74 C 1.527,-2.308 0.751,-1.132 0,0" style="fill:#ffffff;fill-opacity:1;fill-rule:nonzero;stroke:none" id="path272"/>
  </g>
  <g id="g274" transform="matrix(39.631554, 0, 0, -39.631554, -2318.949707, -2352.21582)" style="">
    <path d="m 0,0 -0.7,-0.754 c 0.726,-1.09 1.481,-2.232 2.258,-3.418 l 0.711,0.739 C 1.487,-2.24 0.729,-1.094 0,0" style="fill:#ffffff;fill-opacity:1;fill-rule:nonzero;stroke:none" id="path276"/>
  </g>
  <g id="g278" transform="matrix(39.631554, 0, 0, -39.631554, -2325.699219, -3123.556396)" style="">
    <path d="m 0,0 0.715,-1.077 0.69,0.77 -0.716,1.076 z" style="fill:#ffffff;fill-opacity:1;fill-rule:nonzero;stroke:none" id="path280"/>
  </g>
  <g id="g282" transform="matrix(39.631554, 0, 0, -39.631554, -2530.094971, -2257.669678)" style="">
    <path d="M 0,0 C -0.526,0.799 -1.05,1.589 -1.572,2.37 L -2.262,1.6 c 0.519,-0.776 1.039,-1.562 1.56,-2.356 z" style="fill:#ffffff;fill-opacity:1;fill-rule:nonzero;stroke:none" id="path284"/>
  </g>
  <g id="g286" transform="matrix(39.631554, 0, 0, -39.631554, -2367.597168, -2748.503174)" style="">
    <path d="M 0,0 0.688,0.768 C 0.371,1.238 0.063,1.695 -0.227,2.125 -0.268,2.186 -0.304,2.239 -0.344,2.299 L -1.033,1.531 C -0.707,1.049 -0.359,0.533 0,0" style="fill:#ffffff;fill-opacity:1;fill-rule:nonzero;stroke:none" id="path288"/>
  </g>
  <g id="g290" transform="matrix(39.631554, 0, 0, -39.631554, -2492.460693, -2609.150635)" style="">
    <path d="M 0,0 C -0.376,0.549 -0.724,1.056 -1.044,1.519 L -1.73,0.753 c 0.32,-0.464 0.67,-0.975 1.043,-1.52 z" style="fill:#ffffff;fill-opacity:1;fill-rule:nonzero;stroke:none" id="path292"/>
  </g>
  <g id="g294" transform="matrix(39.631554, 0, 0, -39.631554, -2438.00293, -2923.908203)" style="">
    <path d="M 0,0 C -0.267,0.397 -0.508,0.759 -0.718,1.074 L -1.407,0.305 c 0.215,-0.323 0.451,-0.675 0.718,-1.074 z" style="fill:#ffffff;fill-opacity:1;fill-rule:nonzero;stroke:none" id="path296"/>
  </g>
  <g id="g298" transform="matrix(39.631554, 0, 0, -39.631554, -2370.601318, -2429.449463)" style="">
    <path d="M 0,0 C -0.578,0.86 -1.13,1.677 -1.648,2.442 L -2.336,1.674 C -1.82,0.913 -1.271,0.1 -0.699,-0.753 Z" style="fill:#ffffff;fill-opacity:1;fill-rule:nonzero;stroke:none" id="path300"/>
  </g>
  <g id="g302" transform="matrix(39.631554, 0, 0, -39.631554, -2117.550781, -2881.530029)" style="">
    <path d="m 0,0 -0.69,-0.77 c 0.551,-0.835 1.128,-1.713 1.733,-2.636 l 0.701,0.754 C 1.137,-1.726 0.551,-0.835 0,0" style="fill:#ffffff;fill-opacity:1;fill-rule:nonzero;stroke:none" id="path304"/>
  </g>
  <g id="g306" transform="matrix(39.631554, 0, 0, -39.631554, -2284.196045, -2695.547363)" style="">
    <path d="M 0,0 -0.688,-0.768 C -0.15,-1.57 0.415,-2.415 0.999,-3.29 l 0.699,0.753 C 1.11,-1.655 0.541,-0.806 0,0" style="fill:#ffffff;fill-opacity:1;fill-rule:nonzero;stroke:none" id="path308"/>
  </g>
  <g id="g310" transform="matrix(39.631554, 0, 0, -39.631554, -2241.002197, -2996.148193)" style="">
    <path d="m 0,0 c 0.324,-0.488 0.664,-1.001 1.023,-1.542 l 0.69,0.77 C 1.354,-0.231 1.012,0.284 0.689,0.769 Z" style="fill:#ffffff;fill-opacity:1;fill-rule:nonzero;stroke:none" id="path312"/>
  </g>
  <g id="g314" transform="matrix(39.631554, 0, 0, -39.631554, -1016.712158, 449.881561)" style="">
    <path d="M 0,0 0.719,0.803 C 0.233,1.79 -0.252,2.768 -0.736,3.731 L -1.463,2.949 C -0.976,1.978 -0.489,0.995 0,0" style="fill:#ffffff;fill-opacity:1;fill-rule:nonzero;stroke:none" id="path316"/>
  </g>
  <g id="g318" transform="matrix(39.631554, 0, 0, -39.631554, -488.126648, 5.993069)" style="">
    <path d="m 0,0 c 0.291,-0.583 0.578,-1.159 0.859,-1.725 l 0.718,0.801 C 1.295,-0.357 1.009,0.218 0.717,0.8 Z" style="fill:#ffffff;fill-opacity:1;fill-rule:nonzero;stroke:none" id="path320"/>
  </g>
  <g id="g322" transform="matrix(39.631554, 0, 0, -39.631554, -801.311035, -94.295555)" style="">
    <path d="m 0,0 0.723,0.779 c -0.625,1.222 -1.27,2.47 -1.932,3.739 l -0.73,-0.76 C -1.275,2.484 -0.627,1.228 0,0" style="fill:#ffffff;fill-opacity:1;fill-rule:nonzero;stroke:none" id="path324"/>
  </g>
  <g id="g326" transform="matrix(39.631554, 0, 0, -39.631554, -840.058228, 727.060547)" style="">
    <path d="M 0,0 C -0.193,0.414 -0.385,0.822 -0.577,1.231 L -1.302,0.422 c 0.192,-0.41 0.384,-0.816 0.577,-1.231 z" style="fill:#ffffff;fill-opacity:1;fill-rule:nonzero;stroke:none" id="path328"/>
  </g>
  <g id="g330" transform="matrix(39.631554, 0, 0, -39.631554, -407.2547, 169.718689)" style="">
    <path d="m 0,0 c 0.202,-0.414 0.398,-0.819 0.59,-1.216 l 0.722,0.805 C 1.12,-0.015 0.921,0.393 0.72,0.804 Z" style="fill:#ffffff;fill-opacity:1;fill-rule:nonzero;stroke:none" id="path332"/>
  </g>
  <g id="g334" transform="matrix(39.631554, 0, 0, -39.631554, -587.788147, -191.400513)" style="">
    <path d="m 0,0 c 0.448,-0.879 0.891,-1.753 1.329,-2.62 l 0.716,0.8 C 1.61,-0.959 1.169,-0.091 0.724,0.78 Z" style="fill:#ffffff;fill-opacity:1;fill-rule:nonzero;stroke:none" id="path336"/>
  </g>
  <g id="g338" transform="matrix(39.631554, 0, 0, -39.631554, 131.372833, -1721.561401)" style="">
    <path d="m 0,0 c -2.508,0.027 -15.916,0.04 -37.095,-2.232 -0.968,1.633 -1.94,3.254 -2.91,4.857 13.534,1.42 27.285,2.147 40.888,2.162 z m -1.323,-7.217 -0.792,-4.647 c -11.536,-0.023 -23.754,-1.152 -33.593,-2.062 -2.593,-0.24 -5.061,-0.468 -7.364,-0.663 -3.026,5.175 -6.183,10.432 -9.43,15.703 0.466,0.061 1.03,0.135 1.527,0.199 l 0.999,0.131 c 0.56,0.074 1.613,0.206 2.35,0.299 2.191,-3.631 4.646,-7.829 6.554,-11.106 l 0.476,-0.247 6.635,0.586 c 10.585,0.928 21.857,1.787 32.638,1.807 m -27.092,-12.284 c -1.901,-0.164 -3.727,-0.333 -5.436,-0.501 -0.97,1.739 -1.858,3.313 -2.81,4.984 0.347,0.032 0.695,0.064 1.045,0.097 1.431,0.132 2.912,0.269 4.434,0.406 0.958,-1.708 1.821,-3.261 2.767,-4.986 m 24.83,0.058 -0.837,-4.54 c -38.073,-0.049 -77.98,-9.428 -85.158,-11.193 l 18.764,33.134 c 0.92,0.203 4.768,1.025 10.889,2.023 7.211,-11.722 13.027,-21.981 13.122,-22.149 l 0.502,-0.249 c 0.252,0.034 25.194,3.366 42.718,2.974 m -38.929,3.898 c 1.521,0.13 3.111,0.274 4.76,0.426 0.965,-1.693 1.856,-3.269 2.818,-4.992 -1.695,-0.171 -3.261,-0.339 -4.657,-0.494 -0.958,1.675 -1.932,3.363 -2.921,5.06 M 1.484,5.787 h -0.19 c -13.922,0 -28.004,-0.745 -41.854,-2.216 l 0.005,-0.039 c -3.455,5.682 -6.866,11.09 -9.949,15.885 l -0.713,-0.741 c 5.018,-7.809 10.898,-17.233 16.389,-26.773 l -5.539,-0.489 c -1.937,3.326 -4.399,7.532 -6.577,11.133 -2.553,4.224 -5.258,8.48 -7.828,12.43 l -0.712,-0.741 c 2.396,-3.684 4.902,-7.626 7.291,-11.556 -0.674,-0.085 -1.456,-0.184 -1.913,-0.244 l -0.998,-0.131 c -0.67,-0.087 -1.463,-0.191 -1.974,-0.259 -1.888,3.051 -3.799,6.045 -5.621,8.845 l -0.712,-0.74 c 1.865,-2.868 3.82,-5.935 5.745,-9.055 4.541,-7.359 8.91,-14.697 12.991,-21.823 -2.744,-0.312 -4.682,-0.559 -5.426,-0.655 -1.194,2.097 -8.588,15.021 -16.753,27.95 l -0.714,-0.743 c 1.041,-1.65 2.071,-3.299 3.074,-4.924 -6.815,-1.12 -10.719,-2.006 -10.759,-2.016 l -0.324,-0.24 -19.448,-34.344 0.561,-0.73 c 0.299,0.078 20.709,5.321 46.857,8.682 3.128,-5.501 6.044,-10.748 8.906,-16.163 l 0.73,0.759 c -2.756,5.204 -5.564,10.259 -8.564,15.541 1.776,0.223 3.574,0.438 5.395,0.641 2.402,-4.292 4.662,-8.432 6.786,-12.418 l 0.728,0.757 c -2.022,3.791 -4.163,7.714 -6.435,11.78 1.516,0.164 3.045,0.321 4.585,0.469 1.728,-3.174 3.341,-6.195 4.869,-9.107 l 0.731,0.76 c -1.424,2.71 -2.922,5.514 -4.517,8.449 1.789,0.165 3.589,0.318 5.402,0.456 0.843,-1.579 1.764,-3.325 2.72,-5.154 l 0.731,0.761 c -0.824,1.576 -1.62,3.084 -2.361,4.475 6.531,0.475 13.186,0.758 19.78,0.758 h 0.115 l 0.492,0.409 1.017,5.52 -0.405,0.584 -0.146,0.02 c -7.519,0.193 -16.466,-0.313 -24.277,-0.96 -0.959,1.752 -1.821,3.308 -2.766,4.993 8.798,0.785 18.872,1.556 28.398,1.553 l 0.493,0.416 0.961,5.639 -0.401,0.575 -0.147,0.019 h -0.088 c -10.871,0 -22.206,-0.854 -32.854,-1.785 -0.926,1.611 -1.865,3.223 -2.807,4.822 23.113,2.457 36.803,2.178 36.939,2.172 l 0.504,0.409 1.068,5.793 z" style="fill:#ffffff;fill-opacity:1;fill-rule:nonzero;stroke:none" id="path340"/>
  </g>
  <g id="g342" transform="matrix(39.631554, 0, 0, -39.631554, -946.996704, 62.634163)" style="">
    <path d="M 0,0 0.724,0.78 C 0.074,2.03 -0.593,3.301 -1.273,4.586 L -2.004,3.826 C -1.321,2.533 -0.652,1.257 0,0" style="fill:#ffffff;fill-opacity:1;fill-rule:nonzero;stroke:none" id="path344"/>
  </g>
  <g id="g346" transform="matrix(39.631554, 0, 0, -39.631554, -1118.152222, 246.992218)" style="">
    <path d="M 0,0 0.725,0.781 C 0.049,2.107 -0.627,3.414 -1.306,4.71 L -2.037,3.949 C -1.357,2.648 -0.678,1.332 0,0" style="fill:#ffffff;fill-opacity:1;fill-rule:nonzero;stroke:none" id="path348"/>
  </g>
  <g id="g350" transform="matrix(39.631554, 0, 0, -39.631554, -908.731567, 581.771667)" style="">
    <path d="M 0,0 C -0.281,0.587 -0.561,1.168 -0.841,1.746 L -1.562,0.941 c 0.279,-0.577 0.559,-1.161 0.839,-1.748 z" style="fill:#ffffff;fill-opacity:1;fill-rule:nonzero;stroke:none" id="path352"/>
  </g>
  <g id="g354" transform="matrix(39.631554, 0, 0, -39.631554, -718.893372, 517.520264)" style="">
    <path d="m 0,0 c 0.198,-0.411 0.391,-0.816 0.585,-1.222 l 0.723,0.807 C 1.113,-0.007 0.923,0.394 0.723,0.807 Z" style="fill:#ffffff;fill-opacity:1;fill-rule:nonzero;stroke:none" id="path356"/>
  </g>
  <g id="g358" transform="matrix(39.631554, 0, 0, -39.631554, -799.282043, 353.256378)" style="">
    <path d="m 0,0 c 0.291,-0.585 0.57,-1.156 0.852,-1.732 l 0.72,0.803 C 1.287,-0.351 1.012,0.216 0.72,0.803 Z" style="fill:#ffffff;fill-opacity:1;fill-rule:nonzero;stroke:none" id="path360"/>
  </g>
  <g id="g362" transform="matrix(39.631554, 0, 0, -39.631554, -577.97876, 360.254486)" style="">
    <path d="M 0,0 C 0.192,-0.409 0.391,-0.825 0.579,-1.228 L 1.303,-0.42 C 1.114,-0.015 0.918,0.398 0.724,0.808 Z" style="fill:#ffffff;fill-opacity:1;fill-rule:nonzero;stroke:none" id="path364"/>
  </g>
  <g id="g366" transform="matrix(39.631554, 0, 0, -39.631554, -631.63269, -277.063934)" style="">
    <path d="M 0,0 0.724,0.78 C 0.093,2.007 -0.537,3.225 -1.156,4.416 L -1.888,3.654 C -1.265,2.455 -0.633,1.233 0,0" style="fill:#ffffff;fill-opacity:1;fill-rule:nonzero;stroke:none" id="path368"/>
  </g>
  <g id="g370" transform="matrix(39.631554, 0, 0, -39.631554, -657.218994, 194.706284)" style="">
    <path d="m 0,0 c 0.285,-0.586 0.566,-1.167 0.843,-1.743 l 0.721,0.805 C 1.285,-0.36 1.009,0.216 0.721,0.805 Z" style="fill:#ffffff;fill-opacity:1;fill-rule:nonzero;stroke:none" id="path372"/>
  </g>
  <g id="g374" transform="matrix(39.631554, 0, 0, -39.631554, -846.269226, 259.662537)" style="">
    <path d="M 0,0 0.717,0.8 C 0.251,1.722 -0.223,2.653 -0.707,3.595 L -1.43,2.816 C -0.943,1.865 -0.469,0.93 0,0" style="fill:#ffffff;fill-opacity:1;fill-rule:nonzero;stroke:none" id="path376"/>
  </g>
  <g id="g378" transform="matrix(39.631554, 0, 0, -39.631554, -757.831116, -8.25589)" style="">
    <path d="M 0,0 C 0.467,-0.927 0.923,-1.841 1.369,-2.742 L 2.088,-1.94 C 1.644,-1.046 1.189,-0.138 0.725,0.781 Z" style="fill:#ffffff;fill-opacity:1;fill-rule:nonzero;stroke:none" id="path380"/>
  </g>
</svg>